<?xml version="1.0" encoding="UTF-8" standalone="no"?>
<svg width="254px" height="255px" viewBox="0 0 254 255" version="1.1" xmlns="http://www.w3.org/2000/svg" xmlns:xlink="http://www.w3.org/1999/xlink">
    <!-- Generator: Sketch 39.1 (31720) - http://www.bohemiancoding.com/sketch -->
    <title>Artboard</title>
    <desc>Created with Sketch.</desc>
    <defs>
        <radialGradient cx="50%" cy="20.0908358%" fx="50%" fy="20.0908358%" r="100%" id="radialGradient-1">
            <stop stop-color="#00BEFF" offset="0%"></stop>
            <stop stop-color="#14ADC2" stop-opacity="0.628708107" offset="100%"></stop>
        </radialGradient>
    </defs>
    <g id="Page-1" stroke="none" stroke-width="1" fill="none" fill-rule="evenodd">
        <g id="Artboard">
            <g id="Group" transform="translate(1.000000, 0.000000)">
                <circle id="Oval" fill="url(#radialGradient-1)" cx="126" cy="126" r="126"></circle>
                <path d="M44.1884766,141 L44.1884766,78.2216797 L60.6923828,78.2216797 L60.6923828,86.2832031 C62.3850996,84.0403534 65.1463025,81.8715925 68.9760742,79.7768555 C72.805846,77.6821184 76.9000433,76.6347656 81.2587891,76.6347656 C85.7868065,76.6347656 89.5318862,77.6186425 92.4941406,79.5864258 C95.456395,81.5542091 97.5087833,84.3365706 98.6513672,87.9335938 C100.640309,84.8867035 103.602519,82.2418732 107.538086,79.9990234 C111.473652,77.7561737 115.705381,76.6347656 120.233398,76.6347656 C126.115589,76.6347656 130.664697,78.2216638 133.880859,81.3955078 C137.097021,84.5693518 138.705078,89.3088877 138.705078,95.6142578 L138.705078,141 L122.074219,141 L122.074219,101.327148 C122.074219,98.2379403 121.312508,95.8046964 119.789062,94.0273438 C118.265617,92.2499911 115.895849,91.3613281 112.679688,91.3613281 C110.013659,91.3613281 107.527518,92.080722 105.221191,93.5195312 C102.914865,94.9583405 101.084642,96.6510319 99.7304688,98.5976562 L99.7304688,141 L83.0361328,141 L83.0361328,101.327148 C83.0361328,94.683235 79.9258124,91.3613281 73.7050781,91.3613281 C71.0813671,91.3613281 68.6163852,92.080722 66.3100586,93.5195312 C64.003732,94.9583405 62.1311921,96.6510319 60.6923828,98.5976562 L60.6923828,141 L44.1884766,141 Z M151.146484,121.766602 C151.146484,118.931301 151.580237,116.339367 152.447754,113.990723 C153.315271,111.642078 154.457838,109.706062 155.875488,108.182617 C157.293139,106.659172 158.964671,105.379074 160.890137,104.342285 C162.815602,103.305496 164.772777,102.564944 166.761719,102.120605 C168.750661,101.676267 170.781891,101.454102 172.855469,101.454102 C177.087261,101.454102 180.938134,102.120599 184.408203,103.453613 C187.878273,104.786628 190.650055,106.680326 192.723633,109.134766 L192.723633,101.200195 C192.723633,98.0263513 191.464694,95.4767349 188.946777,93.5512695 C186.428861,91.6258042 183.096375,90.6630859 178.949219,90.6630859 C172.220669,90.6630859 166.190456,93.1386471 160.858398,98.0898438 L154.383789,86.5371094 C161.704789,79.9355139 170.845323,76.6347656 181.805664,76.6347656 C185.614277,76.6347656 189.094874,77.0367798 192.247559,77.8408203 C195.400244,78.6448608 198.298978,79.935538 200.943848,81.7128906 C203.588718,83.4902433 205.651685,85.9658044 207.132812,89.1396484 C208.61394,92.3134924 209.354492,96.0797308 209.354492,100.438477 L209.354492,141 L192.723633,141 L192.723633,134.398438 C190.565419,136.979831 187.74074,138.989902 184.249512,140.428711 C180.758283,141.86752 176.960307,142.586914 172.855469,142.586914 C170.274076,142.586914 167.724459,142.142583 165.206543,141.253906 C162.688627,140.36523 160.371755,139.095711 158.255859,137.445312 C156.139963,135.794914 154.426113,133.604994 153.114258,130.875488 C151.802402,128.145982 151.146484,125.109717 151.146484,121.766602 L151.146484,121.766602 Z M167.650391,122.020508 C167.650391,124.898126 168.771799,127.17268 171.014648,128.844238 C173.257498,130.515796 176.071598,131.351562 179.457031,131.351562 C182.207696,131.351562 184.778471,130.886072 187.169434,129.955078 C189.560396,129.024084 191.411777,127.669931 192.723633,125.892578 L192.723633,118.148438 C191.369459,116.371085 189.49692,114.985194 187.105957,113.990723 C184.714995,112.996252 182.165378,112.499023 179.457031,112.499023 C176.113916,112.499023 173.310395,113.366528 171.046387,115.101562 C168.782378,116.836597 167.650391,119.142889 167.650391,122.020508 L167.650391,122.020508 Z" id="ma" fill="#FFFFFF"></path>
                <rect id="Rectangle" fill="#FFFFFF" x="44" y="151" width="165" height="7"></rect>
                <path d="M79.2421875,216 L79.2421875,189.320312 L81.3125,189.320312 L81.3125,199.59375 C82.080733,198.682287 83.1061134,197.888024 84.3886719,197.210938 C85.6712304,196.533851 86.9700455,196.195312 88.2851562,196.195312 C90.2903746,196.195312 91.8040313,196.69661 92.8261719,197.699219 C93.8483124,198.701828 94.359375,200.270823 94.359375,202.40625 L94.359375,216 L92.2890625,216 L92.2890625,202.835938 C92.2890625,201.078116 91.8854207,199.844405 91.078125,199.134766 C90.2708293,198.425127 89.1119867,198.070312 87.6015625,198.070312 C86.4036398,198.070312 85.2155007,198.39583 84.0371094,199.046875 C82.8587181,199.69792 81.950524,200.479162 81.3125,201.390625 L81.3125,216 L79.2421875,216 Z M99.7890625,210.042969 C99.7890625,208.701816 100.124346,207.533208 100.794922,206.537109 C101.465498,205.541011 102.302078,204.808596 103.304688,204.339844 C104.307297,203.871091 105.388015,203.636719 106.546875,203.636719 C109.281264,203.636719 111.468742,204.554678 113.109375,206.390625 L113.109375,202.484375 C113.109375,201.10416 112.617843,200.016931 111.634766,199.222656 C110.651688,198.428381 109.417976,198.03125 107.933594,198.03125 C106.709629,198.03125 105.60938,198.259112 104.632812,198.714844 C103.656245,199.170575 102.731775,199.893224 101.859375,200.882812 L100.707031,199.4375 C101.722661,198.330724 102.822911,197.513675 104.007812,196.986328 C105.192714,196.458982 106.572909,196.195312 108.148438,196.195312 C110.231781,196.195312 111.924473,196.716141 113.226562,197.757812 C114.528652,198.799484 115.179688,200.348948 115.179688,202.40625 L115.179688,216 L113.109375,216 L113.109375,213.714844 C111.416658,215.563811 109.22918,216.488281 106.546875,216.488281 C105.700517,216.488281 104.880212,216.345054 104.085938,216.058594 C103.291663,215.772134 102.572269,215.365237 101.927734,214.837891 C101.2832,214.310544 100.765627,213.630212 100.375,212.796875 C99.984373,211.963538 99.7890625,211.045578 99.7890625,210.042969 L99.7890625,210.042969 Z M101.976562,210.082031 C101.976562,211.449226 102.468094,212.585282 103.451172,213.490234 C104.43425,214.395187 105.707023,214.847656 107.269531,214.847656 C108.454433,214.847656 109.554682,214.619794 110.570312,214.164062 C111.585943,213.708331 112.432288,213.050786 113.109375,212.191406 L113.109375,207.953125 C112.445309,207.067704 111.602219,206.400393 110.580078,205.951172 C109.557938,205.501951 108.454433,205.277344 107.269531,205.277344 C105.707023,205.277344 104.43425,205.729813 103.451172,206.634766 C102.468094,207.539718 101.976562,208.688795 101.976562,210.082031 L101.976562,210.082031 Z M120.589844,206.3125 C120.589844,203.434881 121.452465,201.029307 123.177734,199.095703 C124.903003,197.1621 127.15884,196.195312 129.945312,196.195312 C131.520841,196.195312 132.839187,196.475258 133.900391,197.035156 C134.961594,197.595055 135.921871,198.408849 136.78125,199.476562 L135.335938,200.765625 C134.020827,198.968741 132.263032,198.070312 130.0625,198.070312 C127.848947,198.070312 126.081387,198.8483 124.759766,200.404297 C123.438144,201.960294 122.777344,203.929676 122.777344,206.3125 C122.777344,208.695324 123.4414,210.671216 124.769531,212.240234 C126.097663,213.809253 127.861968,214.59375 130.0625,214.59375 C132.250011,214.59375 134.007806,213.688811 135.335938,211.878906 L136.78125,213.167969 C135.934892,214.248703 134.981125,215.072263 133.919922,215.638672 C132.858719,216.205081 131.533862,216.488281 129.945312,216.488281 C128.552076,216.488281 127.266282,216.221357 126.087891,215.6875 C124.909499,215.153643 123.923181,214.430994 123.128906,213.519531 C122.334631,212.608068 121.712893,211.530605 121.263672,210.287109 C120.814451,209.043614 120.589844,207.718757 120.589844,206.3125 L120.589844,206.3125 Z M141.410156,216 L141.410156,189.320312 L143.480469,189.320312 L143.480469,207.71875 L154.847656,196.683594 L157.640625,196.683594 L148.65625,205.394531 L157.601562,216 L154.808594,216 L147.09375,206.800781 L143.480469,210.199219 L143.480469,216 L141.410156,216 Z M159.925781,213.402344 L161.15625,211.878906 C161.807295,212.699223 162.686192,213.376299 163.792969,213.910156 C164.899745,214.444013 166.10416,214.710938 167.40625,214.710938 C168.9948,214.710938 170.251297,214.346358 171.175781,213.617188 C172.100265,212.888017 172.5625,211.950527 172.5625,210.804688 C172.5625,210.101559 172.337893,209.502607 171.888672,209.007812 C171.439451,208.513018 170.856774,208.132163 170.140625,207.865234 C169.424476,207.598306 168.630213,207.360678 167.757812,207.152344 C166.885412,206.944009 166.01628,206.709637 165.150391,206.449219 C164.284501,206.188801 163.493493,205.879559 162.777344,205.521484 C162.061194,205.16341 161.478518,204.649092 161.029297,203.978516 C160.580076,203.307939 160.355469,202.503911 160.355469,201.566406 C160.355469,200.02994 160.977207,198.750656 162.220703,197.728516 C163.464199,196.706375 165.140614,196.195312 167.25,196.195312 C170.15366,196.195312 172.458325,197.145824 174.164062,199.046875 L173.011719,200.511719 C172.438799,199.730465 171.647792,199.108726 170.638672,198.646484 C169.629552,198.184242 168.500006,197.953125 167.25,197.953125 C165.778638,197.953125 164.61003,198.285153 163.744141,198.949219 C162.878251,199.613285 162.445312,200.45963 162.445312,201.488281 C162.445312,202.139326 162.66992,202.686196 163.119141,203.128906 C163.568362,203.571617 164.147783,203.916665 164.857422,204.164062 C165.567061,204.41146 166.354813,204.636067 167.220703,204.837891 C168.086593,205.039715 168.95247,205.277342 169.818359,205.550781 C170.684249,205.82422 171.472002,206.156248 172.181641,206.546875 C172.89128,206.937502 173.470701,207.494137 173.919922,208.216797 C174.369143,208.939457 174.59375,209.802078 174.59375,210.804688 C174.59375,212.458342 173.968756,213.819005 172.71875,214.886719 C171.468744,215.954432 169.684907,216.488281 167.367188,216.488281 C164.21613,216.488281 161.735686,215.459646 159.925781,213.402344 L159.925781,213.402344 Z" id="hacks" fill="#FFFFFF"></path>
            </g>
        </g>
    </g>
</svg>